<?xml version="1.0" encoding="UTF-8"?>
<svg xmlns="http://www.w3.org/2000/svg" xmlns:xlink="http://www.w3.org/1999/xlink" width="270pt" height="285pt" viewBox="0 0 270 285" version="1.1">
<g id="surface1">
<path style=" stroke:none;fill-rule:nonzero;fill:rgb(70.196533%,70.196533%,70.196533%);fill-opacity:1;" d="M 134.5 0.125 L 0.578125 47.253906 L 21.738281 222.71875 L 134.640625 284.773438 L 248.128906 221.875 L 269.28125 46.421875 Z "/>
<path style=" stroke:none;fill-rule:nonzero;fill:rgb(71.372986%,18.03894%,19.607544%);fill-opacity:1;" d="M 255.925781 56.5625 L 134.1875 15.046875 L 134.1875 269.945312 L 236.207031 213.484375 Z "/>
<path style=" stroke:none;fill-rule:nonzero;fill:rgb(89.019775%,19.607544%,21.568298%);fill-opacity:1;" d="M 15.605469 57.3125 L 33.738281 214.234375 L 134.1875 269.945312 L 134.1875 15.042969 Z "/>
<path style=" stroke:none;fill-rule:nonzero;fill:rgb(94.902039%,94.902039%,94.902039%);fill-opacity:1;" d="M 162.40625 141.832031 L 134.410156 83.367188 L 109.761719 141.832031 Z M 173.078125 166.414062 L 98.867188 166.414062 L 82.265625 207.941406 L 51.382812 208.511719 L 134.1875 24.304688 L 219.878906 208.511719 L 191.253906 208.511719 Z "/>
<path style=" stroke:none;fill-rule:nonzero;fill:rgb(70.196533%,70.196533%,70.196533%);fill-opacity:1;" d="M 134.1875 24.304688 L 134.40625 83.367188 L 162.375 141.875 L 134.25 141.875 L 134.1875 166.375 L 173.078125 166.414062 L 191.253906 208.515625 L 220.804688 209.066406 Z "/>
</g>
</svg>
