<?xml version="1.0" encoding="utf-8"?>
<!-- Generator: Adobe Illustrator 17.1.0, SVG Export Plug-In . SVG Version: 6.00 Build 0)  -->
<!DOCTYPE svg PUBLIC "-//W3C//DTD SVG 1.1//EN" "http://www.w3.org/Graphics/SVG/1.1/DTD/svg11.dtd">
<svg version="1.1" id="Layer_1" xmlns="http://www.w3.org/2000/svg" xmlns:xlink="http://www.w3.org/1999/xlink" x="0px" y="0px"
	 width="300px" height="214px" viewBox="0 0 300 214" enable-background="new 0 0 300 214" xml:space="preserve">
<g>
	<path fill="#00979C" d="M78.972,35.027c-25.036,0-45.412,19.27-45.412,42.958c0,23.7,20.362,42.959,45.389,42.959
		c2.421,0,4.865-0.174,7.293-0.525c27.846-3.972,44.898-31.418,50.676-42.434c-5.766-10.991-22.818-38.473-50.676-42.429
		C83.825,35.192,81.381,35.027,78.972,35.027 M163.106,77.985c5.766,11.004,22.795,38.461,50.663,42.434
		c2.431,0.351,4.885,0.525,7.281,0.525c25.038,0,45.378-19.259,45.378-42.959c0-23.687-20.352-42.958-45.378-42.958
		c-2.419,0-4.874,0.165-7.293,0.528C185.924,39.512,168.884,66.982,163.106,77.985 M221.05,144.527
		c-3.523,0-7.081-0.27-10.628-0.777c-29.548-4.226-49.312-25.469-60.41-41.795c-11.098,16.325-30.886,37.592-60.432,41.795
		c-3.524,0.507-7.096,0.777-10.631,0.777c-18.366-0.012-35.641-6.858-48.617-19.272c-13.121-12.531-20.33-29.336-20.33-47.271
		c0-17.941,7.209-34.723,20.342-47.278c12.976-12.415,30.239-19.26,48.628-19.26c3.511,0,7.083,0.267,10.607,0.76
		c29.546,4.231,49.335,25.486,60.432,41.799c11.098-16.314,30.863-37.569,60.41-41.799c3.535-0.493,7.105-0.76,10.628-0.76
		c18.367,0,35.631,6.87,48.608,19.26c13.118,12.554,20.34,29.336,20.34,47.278c0,17.935-7.222,34.74-20.317,47.271
		C256.693,137.669,239.441,144.515,221.05,144.527"/>
	<rect x="59.972" y="71.48" fill="#00979C" width="41.431" height="13.363"/>
	<polygon fill="#00979C" points="239.641,71.48 225.619,71.48 225.619,57.458 212.242,57.458 212.242,71.48 198.22,71.48 
		198.22,84.846 212.242,84.846 212.242,98.88 225.619,98.88 225.619,84.846 239.641,84.846 	"/>
	<path fill="#00979C" d="M30.449,186.663l3.498-14.116l3.803,14.116H30.449z M28.978,163.434l-12.106,38.52h9.771l1.971-7.892
		h11.064l2.137,7.892h10.147l-12.284-38.52H28.978z"/>
	<path fill="#00979C" d="M72.643,182.107h-5.038v-10.91h4.862c4.427,0,5.672,1.75,5.672,5.156
		C78.14,180.615,75.953,182.107,72.643,182.107 M88.286,176.305c0-7.422-4.028-12.871-14.705-12.871H58.081v38.52h9.524v-12.202
		h4.805l5.799,12.202h11.254l-7.516-14.104C86.137,185.607,88.286,181.578,88.286,176.305"/>
	<path fill="#00979C" d="M109.142,194.062h-3.605v-22.865h2.773c8.55,0,9.301,4.028,9.301,11.556
		C117.611,189.259,117.025,194.062,109.142,194.062 M108.616,163.434H96v38.52h12.66c16.374,0,19.134-10.511,19.134-19.624
		C127.794,170.234,123.001,163.434,108.616,163.434"/>
	<path fill="#00979C" d="M156.036,186.942c0,5.875-1.62,7.825-5.966,7.825c-3.604,0-5.85-1.468-5.85-7.868v-23.464h-9.533v25.237
		c0,11.662,8.405,13.881,15.007,13.881c6.8,0,15.49-2.443,15.49-13.823v-25.296h-9.149V186.942z"/>
	<polygon fill="#00979C" points="173.734,171.303 183.705,171.303 183.705,194.062 173.734,194.062 173.734,201.954 
		203.247,201.954 203.247,194.062 193.241,194.062 193.241,171.303 203.247,171.303 203.247,163.434 173.734,163.434 	"/>
	<polygon fill="#00979C" points="234.004,186.558 221.508,163.434 211.127,163.434 211.127,201.954 220.146,201.954 
		220.087,177.304 233.24,201.954 242.906,201.954 242.906,163.434 234.004,163.434 	"/>
	<path fill="#00979C" d="M265.418,194.767c-5.508,0-6.048-3.899-6.048-11.65c0-9.407,0.893-12.437,5.989-12.437
		c5.637,0,6.412,2.595,6.412,12.026C271.772,191.596,270.997,194.767,265.418,194.767 M265.36,162.929
		c-11.674,0-16.113,8.561-16.113,20.188c0,12.742,5.097,19.436,16.171,19.436c12.39,0,16.477-8.726,16.477-19.847
		C281.895,167.991,276.328,162.929,265.36,162.929"/>
	<path fill="#00979C" d="M277.855,16.131h2.008l0.763,2.619l0.869,3.078l0.881-3.161l0.752-2.536h1.891v7.608h-1.609v-4.005
		l-0.481,1.953l-0.575,2.052h-1.762l-0.61-2.02l-0.681-2.312v4.332h-1.444V16.131z M274.837,17.727h-1.033v-1.596h3.781v1.596
		h-1.057v6.013h-1.691V17.727z"/>
</g>
</svg>
